# AST/ASF file generated using VICON BodyLanguage
# -----------------------------------------------
:version 1.10
:name VICON
:units
  mass 1.0
  length 0.45
  angle deg
:documentation
   .ast/.asf automatically generated from VICON data using
   VICON BodyBuilder and BodyLanguage model FoxedUp or BRILLIANT.MOD
:root
   order TX TY TZ RX RY RZ
   axis XYZ
   position 0 0 0  
   orientation 0 0 0 
:bonedata
  begin
     id 1 
     name lhipjoint
     direction 0.62366 -0.717238 0.310833 
     length 2.53602 
     axis 0 0 0  XYZ
  end
  begin
     id 2 
     name lfemur
     direction 0.34202 -0.939693 0  
     length 7.40817  
     axis 0 0 20  XYZ
    dof rx ry rz
    limits (-160.0 20.0)
           (-70.0 70.0)
           (-60.0 70.0)
  end
  begin
     id 3 
     name ltibia
     direction 0.34202 -0.939693 0   
     length 7.7045   
     axis 0 0 20   XYZ
    dof rx
    limits (-10.0 170.0)
  end
  begin
     id 4 
     name lfoot
     direction 0.0673888 -0.185149 0.980397   
     length 2.09456   
     axis -90 7.62852e-016 20   XYZ
    dof rx rz
    limits (-45.0 90.0)
           (-70.0 20.0)
  end
  begin
     id 5 
     name ltoes
     direction 1.53575e-011 -4.21994e-011 1   
     length 1.05543   
     axis -90 7.62852e-016 20   XYZ
    dof rx
    limits (-90.0 20.0)
  end
  begin
     id 6 
     name rhipjoint
     direction -0.489018 -0.800347 0.346851   
     length 2.27268  
     axis 0 0 0  XYZ 
  end
  begin
     id 7 
     name rfemur
     direction -0.34202 -0.939693 0   
     length 7.55487   
     axis 0 0 -20   XYZ
    dof rx ry rz
    limits (-160.0 20.0)
           (-70.0 70.0)
           (-70.0 60.0)
  end
  begin
     id 8 
     name rtibia
     direction -0.34202 -0.939693 0   
     length 7.78969   
     axis 0 0 -20   XYZ
    dof rx
    limits (-10.0 170.0)
 end
 begin
     id 9 
     name rfoot
     direction -0.0859318 -0.236096 0.967923   
     length 2.19143  
     axis -90 -7.62852e-016 -20   XYZ
    dof rx rz
    limits (-45.0 90.0)
           (-20.0 70.0)
  end
  begin
     id 10 
     name rtoes
     direction -1.53538e-011 -4.21989e-011 1   
     length 1.09845   
     axis -90 -7.62852e-016 -20   XYZ
    dof rx
    limits (-90.0 20.0)
  end
  begin
     id 11 
     name lowerback
     direction -0.00762546 0.998978 -0.0445553   
     length 1.98161   
     axis 0 0 0   XYZ
    dof rx ry rz
    limits (-20.0 45.0)
           (-30.0 30.0)
           (-30.0 30.0)
  end
  begin
     id 12 
     name upperback
     direction 0.0422361 0.998867 -0.0219156   
     length 1.97558   
     axis 0 0 0   XYZ
    dof rx ry rz
    limits (-20.0 45.0)
           (-30.0 30.0)
           (-30.0 30.0)
  end
  begin
     id 13 
     name thorax
     direction 0.0442465 0.999021 7.47603e-005   
     length 1.97799   
     axis 0 0 0   XYZ
    dof rx ry rz
    limits (-20.0 45.0)
           (-30.0 30.0)
           (-30.0 30.0)
  end
  begin
     id 14 
     name lowerneck
     direction 0.00312169 0.984641 0.174564   
     length 1.78995   
     axis 0 0 0   XYZ
    dof rx ry rz
    limits (-20.0 45.0)
           (-30.0 30.0)
           (-30.0 30.0)
  end
  begin
     id 15 
     name upperneck
     direction -0.0383028 0.985255 -0.166749   
     length 1.83053   
     axis 0 0 0   XYZ
    dof rx ry rz
    limits (-20.0 45.0)
           (-30.0 30.0)
           (-30.0 30.0)
  end
  begin
     id 16
     name head
     direction -0.0129546 0.997059 -0.0755386  
     length 1.84088  
     axis 0 0 0   XYZ
    dof rx ry rz
    limits (-20.0 45.0)
           (-30.0 30.0)
           (-30.0 30.0)
  end
  begin
     id 17 
     name lclavicle
     direction 0.912857 0.370519 -0.171488  
     length 3.51279  
     axis 0 0 0   XYZ
    dof ry rz
    limits (-20.0 10.0)
           (0.0 20.0)
  end
  begin
     id 18 
     name lhumerus
     direction 1 -4.48962e-011 3.64361e-027   
     length 4.95663   
     axis 180 -30 -90   XYZ
    dof rx ry rz
    limits (-60.0 90.0)
           (-90.0 90.0)
           (-90.0 90.0)
  end
  begin
     id 19
     name lradius
     direction 1 -4.48974e-011 5.97202e-027   
     length 3.38177   
     axis 180 -30 -90   XYZ
    dof rx
    limits (-10.0 170.0)
  end
  begin
     id 20
     name lwrist
     direction 1 -4.4896e-011 9.83288e-027   
     length 1.69088   
     axis -9.31221e-015 90 90   XYZ
    dof ry
    limits (-180.0 0.0)
 end
  begin
     id 21 
     name lhand
     direction 1 -4.4902e-011 1.96551e-026   
     length 0.662909   
     axis -1.25475e-014 90 90   XYZ
    dof rx rz
    limits (-90.0 90.0)
           (-45.0 45.0)
  end
  begin
     id 22 
     name lfingers
     direction 1 -4.48971e-011 3.93277e-026   
     length 0.534454   
     axis -2.50945e-014 90 90   XYZ
    dof rx
    limits (0.0 90.0)
  end
  begin
     id 23
     name lthumb
     direction 0.707107 -6.34933e-011 0.707107   
     length 0.767373   
     axis -90 45 -4.80359e-014   XYZ
    dof rx rz
    limits (-45.0 45.0)
           (-45.0 45.0)
  end
  begin
     id 24 
     name rclavicle
     direction -0.900919 0.395364 -0.178976   
     length 3.40627  
     axis 0 0 0   XYZ 
    dof ry rz
    limits (-10.0 20.0)
           (-20.0 0.0)
  end
  begin
     id 25 
     name rhumerus
     direction -1 -4.48969e-011 1.03875e-027  
     length 5.08365   
     axis 180 30 90   XYZ
    dof rx ry rz
    limits (-90.0 60.0)
           (-90.0 90.0)
           (-90.0 90.0)
  end
  begin
     id 26 
     name rradius
     direction -1 -4.48951e-011 5.02733e-027   
     length 3.35984   
     axis 180 30 90   XYZ
    dof rx
    limits (-10.0 170.0)
  end
  begin
     id 27 
     name rwrist
     direction -1 -4.49011e-011 9.82828e-027   
     length 1.67992   
     axis -9.31221e-015 -90 -90   XYZ
    dof ry
    limits (-180.0 0.0)
  end
  begin
     id 28
     name rhand
     direction -1 -4.48894e-011 1.96774e-026   
     length 0.820764   
     axis -1.25475e-014 -90 -90   XYZ
    dof rx rz
    limits (-90.0 90.0)
           (-45.0 45.0)
  end
  begin
     id 29
     name rfingers
     direction -1 -4.49095e-011 3.92833e-026   
     length 0.661721   
     axis -2.50945e-014 -90 -90   XYZ
    dof rx
    limits (0.0 90.0)
  end
  begin
     id 30
     name rthumb
     direction -0.707107 -6.34881e-011 0.707107   
     length 0.950103   
     axis -90 -45 4.80359e-014   XYZ
    dof rx rz
    limits (-45.0 45.0)
           (-45.0 45.0)
  end
:hierarchy
  begin
    root lhipjoint rhipjoint lowerback
    lhipjoint lfemur
    lfemur ltibia
    ltibia lfoot
    lfoot ltoes
    rhipjoint rfemur
    rfemur rtibia
    rtibia rfoot
    rfoot rtoes
    lowerback upperback
    upperback thorax
    thorax lowerneck lclavicle rclavicle
    lowerneck upperneck
    upperneck head
    lclavicle lhumerus
    lhumerus lradius
    lradius lwrist
    lwrist lhand lthumb
    lhand lfingers
    rclavicle rhumerus
    rhumerus rradius
    rradius rwrist
    rwrist rhand rthumb
    rhand rfingers
  end

#!OML:ASF I:\golf\golf\golf 2\Subject 1\2002-09-07\Subject1.ASF
:FULLY-SPECIFIED
:DEGREES
112
root -0.217078 18.1455 -5.03171 13.2257 5.20808 -3.21163
lowerback 4.50566 1.8347 -4.58433
upperback 4.50834 2.30753 1.12922
thorax 1.90314 1.01808 3.66692
lowerneck -14.7854 2.60926 4.46155
upperneck 41.7353 6.61606 -8.80541
head 18.8732 2.23181 -3.72582
rclavicle -4.96962e-015 -9.14409e-015
rhumerus -30.2467 33.3865 -93.0687
rradius 88.89
rwrist -16.2411
rhand -16.4033 19.8063
rfingers 7.12502
rthumb 9.81109 -9.94518
lclavicle -4.96962e-015 -9.14409e-015
lhumerus -31.4774 -36.5107 95.1221
lradius 77.5535
lwrist 9.23416
lhand -10.1991 37.335
lfingers 7.12502
lthumb 15.7919 66.7108
rfemur -35.511 -6.21213 24.8509
rtibia 26.27
rfoot -5.36972 -9.2185
rtoes 6.16677
lfemur -14.9602 5.5193 -19.2641
ltibia 20.2152
lfoot -14.7067 -2.11509
ltoes 0.0843359
113
root -0.22937 18.1438 -4.9864 13.2497 5.13775 -3.19047
lowerback 4.54087 1.88828 -4.61497
upperback 4.72572 2.38029 1.12352
thorax 2.10177 1.04443 3.67926
lowerneck -14.9527 2.61709 4.42324
upperneck 41.6723 6.61016 -8.76026
head 18.875 2.22496 -3.69325
rclavicle -1.44119e-014 -5.96354e-015
rhumerus -29.6691 33.3682 -92.715
rradius 88.6363
rwrist -15.8603
rhand -16.7982 19.3905
rfingers 7.12502
rthumb 9.43008 -10.3785
lclavicle -1.44119e-014 -5.96354e-015
lhumerus -31.2797 -36.7801 94.9743
lradius 77.1059
lwrist 8.1657
lhand -10.8526 38.4771
lfingers 7.12502
lthumb 15.1625 67.9016
rfemur -35.3261 -6.12651 24.8323
rtibia 25.9157
rfoot -4.91929 -9.23161
rtoes 6.28671
lfemur -14.8635 5.70091 -19.2408
ltibia 20.3252
lfoot -14.9121 -2.1869
ltoes -0.0774168
114
root -0.239504 18.1423 -4.94755 13.385 5.3278 -3.21646
lowerback 4.59658 1.87726 -4.50544
upperback 4.77402 2.36632 1.16423
thorax 2.1242 1.03846 3.65957
lowerneck -14.7996 2.55026 4.35657
upperneck 41.6068 6.49496 -8.69256
head 18.7674 2.18168 -3.66468
rclavicle 1.59028e-015 -1.63003e-014
rhumerus -29.3738 33.3052 -92.4577
rradius 88.4044
rwrist -15.6878
rhand -16.8725 19.0222
rfingers 7.12502
rthumb 9.35841 -10.75
lclavicle 1.59028e-015 -1.63003e-014
lhumerus -31.3286 -36.9593 94.994
lradius 76.865
lwrist 8.19792
lhand -11.0145 39.2181
lfingers 7.12502
lthumb 15.0065 68.6543
rfemur -35.3156 -6.09478 24.8527
rtibia 25.7385
rfoot -4.58945 -9.5596
rtoes 6.75859
lfemur -14.9968 5.64834 -19.1632
ltibia 20.5034
lfoot -15.0283 -2.14591
ltoes -1.35953
115
root -0.247559 18.1372 -4.91436 13.7054 5.7894 -3.17078
lowerback 4.61401 1.77737 -4.30474
upperback 4.75218 2.23784 1.1828
thorax 2.10943 0.980541 3.56944
lowerneck -14.7027 2.46127 4.35785
upperneck 41.5634 6.36109 -8.71159
head 18.6969 2.12992 -3.69682
rclavicle 1.30204e-014 -1.39149e-014
rhumerus -29.0002 33.217 -92.1553
rradius 88.107
rwrist -15.465
rhand -16.9979 18.8582
rfingers 7.12502
rthumb 9.23738 -10.9195
lclavicle 1.30204e-014 -1.39149e-014
lhumerus -31.2251 -36.9022 94.8308
lradius 76.5365
lwrist 9.27665
lhand -10.4099 38.2455
lfingers 7.12502
lthumb 15.5889 67.6373
rfemur -35.5802 -6.24286 24.8516
rtibia 25.7549
rfoot -4.41253 -10.0411
rtoes 6.79751
lfemur -15.4298 5.27585 -19.1599
ltibia 20.7387
lfoot -15.1276 -1.94032
ltoes -3.1151
116
root -0.259822 18.1269 -4.87777 13.9584 6.13458 -3.12251
lowerback 4.63416 1.66466 -4.20263
upperback 4.8302 2.09078 1.24058
thorax 2.19397 0.905726 3.57793
lowerneck -14.7526 2.4548 4.31753
upperneck 41.4671 6.39492 -8.80989
head 18.6604 2.12345 -3.7244
rclavicle 0 1.49089e-014
rhumerus -28.4094 33.3595 -91.7304
rradius 87.7784
rwrist -15.2578
rhand -17.256 18.7254
rfingers 7.12502
rthumb 8.98834 -11.0632
lclavicle 0 1.49089e-014
lhumerus -30.9544 -36.8342 94.6606
lradius 76.0449
lwrist 9.55019
lhand -10.3257 38.115
lfingers 7.12502
lthumb 15.67 67.5005
rfemur -35.7665 -6.35585 24.8806
rtibia 25.899
rfoot -4.31352 -10.39
rtoes 6.83951
lfemur -15.7614 5.08825 -19.1428
ltibia 21.0179
lfoot -15.3066 -1.84434
ltoes -3.96861
117
root -0.275204 18.1139 -4.83268 13.9406 6.19708 -3.13471
lowerback 4.86356 1.65317 -4.13572
upperback 4.98025 2.06939 1.28196
thorax 2.22463 0.893009 3.58011
lowerneck -14.7863 2.46411 4.26533
upperneck 41.3353 6.44709 -8.89242
head 18.5983 2.12447 -3.73587
rclavicle -1.05356e-014 -6.55989e-015
rhumerus -27.9223 33.504 -91.4301
rradius 87.4597
rwrist -15.0724
rhand -17.6563 18.6378
rfingers 7.12502
rthumb 8.60203 -11.1669
lclavicle -1.05356e-014 -6.55989e-015
lhumerus -30.856 -36.9924 94.5571
lradius 75.665
lwrist 8.93419
lhand -10.6237 39.4616
lfingers 7.12502
lthumb 15.3829 68.8693
rfemur -35.6205 -6.3252 24.9388
rtibia 26.1455
rfoot -4.45738 -10.5456
rtoes 8.35785
lfemur -15.7365 5.25521 -19.0371
ltibia 21.3401
lfoot -15.5027 -1.94038
ltoes -3.98281
118
root -0.287992 18.1014 -4.77473 13.718 5.84809 -3.25052
lowerback 5.09861 1.80322 -4.09415
upperback 5.21584 2.26255 1.32311
thorax 2.32097 0.983562 3.58999
lowerneck -14.8241 2.44859 4.22532
upperneck 41.246 6.46382 -8.98046
head 18.5603 2.11308 -3.76203
rclavicle 3.97569e-015 1.0138e-014
rhumerus -27.5323 33.5991 -91.1529
rradius 87.1472
rwrist -14.8638
rhand -18.4894 18.4885
rfingers 7.12502
rthumb 7.79803 -11.3477
lclavicle 3.97569e-015 1.0138e-014
lhumerus -30.7453 -37.1374 94.4115
lradius 75.2824
lwrist 8.28757
lhand -10.4589 40.3772
lfingers 7.12502
lthumb 15.5417 69.7726
rfemur -35.241 -6.24864 25.139
rtibia 26.421
rfoot -4.69571 -10.323
rtoes 9.66119
lfemur -15.3975 5.91589 -18.8858
ltibia 21.668
lfoot -15.7996 -2.11027
ltoes -3.69686
119
root -0.304067 18.0906 -4.72982 13.8125 5.92897 -3.25935
lowerback 5.14108 1.81394 -4.12731
upperback 5.31488 2.27396 1.44002
thorax 2.3943 0.982728 3.73033
lowerneck -14.7586 2.40967 4.05448
upperneck 41.2335 6.44663 -8.94307
head 18.5224 2.08665 -3.7135
rclavicle -2.39039e-014 1.13307e-014
rhumerus -27.2065 33.7186 -90.7683
rradius 86.8595
rwrist -14.601
rhand -19.48 18.1477
rfingers 7.12502
rthumb 6.84178 -11.7218
lclavicle -2.39039e-014 1.13307e-014
lhumerus -30.6604 -37.2525 94.4275
lradius 74.7948
lwrist 7.99926
lhand -10.2757 40.2578
lfingers 7.12502
lthumb 15.7182 69.6395
rfemur -35.2706 -6.37047 25.2805
rtibia 26.6593
rfoot -4.83998 -10.2733
rtoes 9.60849
lfemur -15.5546 6.02375 -18.7973
ltibia 22.0316
lfoot -15.9602 -2.29555
ltoes -3.36428
120
root -0.318889 18.0835 -4.68212 13.9034 5.92133 -3.27278
lowerback 5.21976 1.89498 -4.13281
upperback 5.27632 2.37661 1.50727
thorax 2.29775 1.03572 3.79573
lowerneck -14.3712 2.33261 3.9954
upperneck 41.2329 6.32521 -8.87374
head 18.3915 2.04925 -3.68996
rclavicle -2.29596e-014 1.00386e-014
rhumerus -27.1875 33.6685 -90.6046
rradius 86.5454
rwrist -14.322
rhand -19.9875 17.7665
rfingers 7.12502
rthumb 6.35188 -12.1183
lclavicle -2.29596e-014 1.00386e-014
lhumerus -31.0544 -37.5117 94.6968
lradius 74.4135
lwrist 7.98322
lhand -10.4532 40.1555
lfingers 7.12502
lthumb 15.5472 69.5506
rfemur -35.2695 -6.38067 25.3771
rtibia 26.8312
rfoot -4.91533 -10.0979
rtoes 9.05383
lfemur -15.7459 6.10204 -18.7058
ltibia 22.4771
lfoot -16.1545 -2.38073
ltoes -4.16192
